<?xml version="1.0" standalone="no"?>
<!DOCTYPE svg PUBLIC "-//W3C//DTD SVG 20010904//EN"
 "https://www.w3.org/TR/2001/REC-SVG-20010904/DTD/svg10.dtd">
<svg version="1.0" xmlns="https://www.w3.org/2000/svg"
 width="700.000000pt" height="700.000000pt" viewBox="0 0 700.000000 700.000000"
 preserveAspectRatio="xMidYMid meet">
<metadata>
Created by potrace 1.11, written by Peter Selinger 2001-2013
</metadata>
<g transform="translate(0.000000,700.000000) scale(0.100000,-0.100000)"
fill="#000000" stroke="none">
<path d="M2990 6889 c-52 -55 -117 -124 -145 -153 -27 -29 -126 -133 -220
-231 -93 -98 -188 -197 -210 -220 -22 -23 -110 -116 -196 -206 -86 -90 -171
-180 -189 -199 -18 -19 -106 -111 -195 -205 -90 -93 -177 -186 -195 -205 -29
-31 -98 -103 -476 -499 -51 -53 -115 -121 -144 -151 -28 -30 -121 -127 -205
-215 -84 -88 -167 -176 -185 -195 -18 -19 -107 -113 -199 -209 -91 -96 -186
-195 -210 -220 l-43 -46 413 -3 c228 -1 884 -1 1459 0 l1045 3 1 1528 c0 840
-2 1527 -5 1527 -3 0 -49 -45 -101 -101z"/>
<path d="M3882 5459 l3 -1531 1448 0 c796 0 1450 1 1452 3 4 4 -38 50 -275
299 -81 85 -167 175 -190 200 -23 25 -108 115 -190 200 -81 85 -167 175 -190
200 -23 25 -112 119 -198 209 -87 91 -170 179 -187 196 -100 106 -335 354
-420 443 -55 58 -111 117 -125 132 -14 14 -97 102 -185 194 -88 93 -180 189
-204 215 -24 25 -82 87 -130 137 -47 50 -156 164 -241 254 -85 90 -171 180
-190 200 -19 20 -65 69 -102 108 -38 40 -70 72 -73 72 -3 0 -4 -689 -3 -1531z"/>
<path d="M179 3143 c-4 -25 -3 -3133 1 -3134 22 -6 2913 -2 2916 3 4 6 5 1207
4 3046 l0 92 -1460 0 c-803 0 -1461 -3 -1461 -7z"/>
<path d="M3900 1575 l0 -1575 1463 3 1462 2 -2 1375 c-1 756 -3 1464 -3 1573
l0 197 -1460 0 -1460 0 0 -1575z"/>
</g>
</svg>
